<svg width="33" height="26" viewBox="0 0 33 26" xmlns="http://www.w3.org/2000/svg"><title>crop</title><g fill="none" fill-rule="evenodd" opacity=".25"><circle fill="#000" cx="4.188" cy="3.5" r="3.5"/><path d="M12.808 13.44c-.252 0-.45-.077-.593-.234-.143-.157-.215-.365-.215-.624 0-.266.072-.476.215-.63.143-.153.34-.23.593-.23h2.751v-2.75c0-.328.084-.571.25-.732.168-.16.398-.24.691-.24.293 0 .523.08.69.24.167.16.25.404.25.732v2.75h2.752c.252 0 .45.077.593.23.143.154.215.364.215.63 0 .259-.072.467-.215.624-.143.157-.34.235-.593.235h-2.751v2.74c0 .328-.084.574-.25.737-.168.164-.398.246-.691.246-.293 0-.523-.082-.69-.246-.167-.163-.25-.409-.25-.736V13.44h-2.752z" fill="#000"/><circle fill="#000" cx="4.188" cy="22.5" r="3.5"/><circle fill="#000" cx="29.188" cy="22.5" r="3.5"/><circle fill="#000" cx="29.188" cy="3.5" r="3.5"/><path d="M10 4h15.5M10 21h16M4 17V9m25 8V9" stroke="#000" stroke-width="2" stroke-linecap="square" stroke-dasharray="2,4"/></g></svg>