<svg width="63" height="63" viewBox="0 0 63 63" xmlns="http://www.w3.org/2000/svg"><title>go</title><g fill="none" fill-rule="evenodd"><circle fill="#09F" cx="31.5" cy="31.5" r="31.5"/><path d="M36.915 30.97c-.418-.367-.81-.73-1.178-1.09a71.69 71.69 0 0 1-1.103-1.103l-3.296-3.371a1.636 1.636 0 0 1-.25-.376.937.937 0 0 1-.088-.401c0-.167.037-.33.112-.489.076-.159.174-.3.295-.426.121-.125.263-.226.426-.3a1.17 1.17 0 0 1 .495-.114c.142 0 .276.03.401.088.126.059.247.146.364.263l7.457 7.445c.183.175.313.35.388.526a1.42 1.42 0 0 1 0 1.115 1.64 1.64 0 0 1-.388.527l-7.445 7.444c-.117.117-.24.209-.37.276a.929.929 0 0 1-.432.1c-.167 0-.324-.036-.47-.107a1.426 1.426 0 0 1-.388-.275 1.322 1.322 0 0 1-.27-.389 1.088 1.088 0 0 1-.1-.457c0-.15.031-.293.094-.426.063-.134.157-.26.282-.376l3.396-3.46c.368-.375.735-.743 1.103-1.102.368-.36.76-.727 1.178-1.103H20.811a1.28 1.28 0 0 1-.508-.094 1.03 1.03 0 0 1-.37-.263 1.13 1.13 0 0 1-.225-.389 1.44 1.44 0 0 1-.075-.47c0-.167.025-.321.075-.463.05-.142.125-.268.225-.376a1.142 1.142 0 0 1 .878-.364h16.104z" fill="#FFF"/></g></svg>